{
  "accessors": [
    {
      "bufferView": 2,
      "componentType": 5126,
      "count": 623,
      "max": [
        -0.45749178528785706,
        0.674928605556488,
        0.08184769749641418
      ],
      "min": [
        -1.8013261556625366,
        -0.022632993757724762,
        -0.06806362420320511
      ],
      "type": "VEC3"
    },
    {
      "bufferView": 2,
      "byteOffset": 7476,
      "componentType": 5126,
      "count": 623,
      "max": [
        0.9999797344207764,
        1.0,
        1.0
      ],
      "min": [
        -0.9999796152114868,
        -1.0,
        -0.9999999403953552
      ],
      "type": "VEC3"
    },
    {
      "bufferView": 1,
      "componentType": 5126,
      "count": 623,
      "max": [
        0.3373531103134155,
        0.9543288350105286
      ],
      "min": [
        0.009917913936078548,
        0.7002553939819336
      ],
      "type": "VEC2"
    },
    {
      "bufferView": 0,
      "componentType": 5125,
      "count": 1860,
      "type": "SCALAR"
    },
    {
      "bufferView": 2,
      "byteOffset": 14952,
      "componentType": 5126,
      "count": 42,
      "max": [
        -0.4942459166049957,
        0.674928605556488,
        0.08184769749641418
      ],
      "min": [
        -1.643217921257019,
        0.51719731092453,
        -0.06806362420320511
      ],
      "type": "VEC3"
    },
    {
      "bufferView": 2,
      "byteOffset": 15456,
      "componentType": 5126,
      "count": 42,
      "max": [
        0.006815379019826651,
        0.9999768733978271,
        1.0
      ],
      "min": [
        -0.0068153925240039825,
        -0.9999768733978271,
        -1.0
      ],
      "type": "VEC3"
    },
    {
      "bufferView": 1,
      "byteOffset": 4984,
      "componentType": 5126,
      "count": 42,
      "max": [
        0.3306206166744232,
        0.8256595730781555
      ],
      "min": [
        0.24506071209907532,
        0.7047915458679199
      ],
      "type": "VEC2"
    },
    {
      "bufferView": 0,
      "byteOffset": 7440,
      "componentType": 5125,
      "count": 120,
      "type": "SCALAR"
    },
    {
      "bufferView": 2,
      "byteOffset": 15960,
      "componentType": 5126,
      "count": 1680,
      "max": [
        3.06514310836792,
        0.9025498032569885,
        2.9250729084014893
      ],
      "min": [
        -3.06514310836792,
        0.011740487068891525,
        0.032275617122650146
      ],
      "type": "VEC3"
    },
    {
      "bufferView": 2,
      "byteOffset": 36120,
      "componentType": 5126,
      "count": 1680,
      "max": [
        1.0,
        1.0,
        1.0
      ],
      "min": [
        -1.0,
        -1.0,
        -1.0
      ],
      "type": "VEC3"
    },
    {
      "bufferView": 1,
      "byteOffset": 5320,
      "componentType": 5126,
      "count": 1680,
      "max": [
        0.8565139770507813,
        0.4956379234790802
      ],
      "min": [
        0.006394147872924805,
        0.004786074161529541
      ],
      "type": "VEC2"
    },
    {
      "bufferView": 0,
      "byteOffset": 7920,
      "componentType": 5125,
      "count": 3792,
      "type": "SCALAR"
    },
    {
      "bufferView": 2,
      "byteOffset": 56280,
      "componentType": 5126,
      "count": 4,
      "max": [
        2.9097957611083984,
        0.19909076392650604,
        2.7550265789031982
      ],
      "min": [
        -2.877692937850952,
        0.1982140988111496,
        0.2384229302406311
      ],
      "type": "VEC3"
    },
    {
      "bufferView": 2,
      "byteOffset": 56328,
      "componentType": 5126,
      "count": 4,
      "max": [
        0.0,
        -0.9999999403953552,
        -0.0003483427281025797
      ],
      "min": [
        0.0,
        -1.0,
        -0.00034834275720641017
      ],
      "type": "VEC3"
    },
    {
      "bufferView": 1,
      "byteOffset": 18760,
      "componentType": 5126,
      "count": 4,
      "max": [
        0.13484036922454834,
        0.28263378143310547
      ],
      "min": [
        0.018369436264038086,
        0.01478305459022522
      ],
      "type": "VEC2"
    },
    {
      "bufferView": 0,
      "byteOffset": 23088,
      "componentType": 5125,
      "count": 6,
      "type": "SCALAR"
    },
    {
      "bufferView": 2,
      "byteOffset": 56376,
      "componentType": 5126,
      "count": 3410,
      "max": [
        3.2601046562194824,
        1.453235387802124,
        1.4213225841522217
      ],
      "min": [
        -3.06514310836792,
        0.01646178960800171,
        -1.5491418838500977
      ],
      "type": "VEC3"
    },
    {
      "bufferView": 2,
      "byteOffset": 97296,
      "componentType": 5126,
      "count": 3410,
      "max": [
        1.0,
        1.0,
        1.0
      ],
      "min": [
        -1.0,
        -1.0,
        -1.0
      ],
      "type": "VEC3"
    },
    {
      "bufferView": 1,
      "byteOffset": 18792,
      "componentType": 5126,
      "count": 3410,
      "max": [
        0.9866499304771423,
        0.9573148488998413
      ],
      "min": [
        0.0,
        0.0
      ],
      "type": "VEC2"
    },
    {
      "bufferView": 0,
      "byteOffset": 23112,
      "componentType": 5125,
      "count": 7545,
      "type": "SCALAR"
    },
    {
      "bufferView": 2,
      "byteOffset": 138216,
      "componentType": 5126,
      "count": 24,
      "max": [
        2.890700340270996,
        1.4283301830291748,
        1.421321988105774
      ],
      "min": [
        -2.880441904067993,
        0.14407825469970703,
        -1.417480707168579
      ],
      "type": "VEC3"
    },
    {
      "bufferView": 2,
      "byteOffset": 138504,
      "componentType": 5126,
      "count": 24,
      "max": [
        1.0,
        1.0,
        1.0
      ],
      "min": [
        -1.0,
        -1.0,
        -1.0
      ],
      "type": "VEC3"
    },
    {
      "bufferView": 1,
      "byteOffset": 46072,
      "componentType": 5126,
      "count": 24,
      "max": [
        0.9257367849349976,
        0.9597222805023193
      ],
      "min": [
        0.5990607738494873,
        0.6997979879379272
      ],
      "type": "VEC2"
    },
    {
      "bufferView": 0,
      "byteOffset": 53292,
      "componentType": 5125,
      "count": 36,
      "type": "SCALAR"
    },
    {
      "bufferView": 2,
      "byteOffset": 138792,
      "componentType": 5126,
      "count": 8,
      "max": [
        2.890700101852417,
        1.4283301830291748,
        -1.421321988105774
      ],
      "min": [
        -2.880441904067993,
        0.14407825469970703,
        -1.4213224649429321
      ],
      "type": "VEC3"
    },
    {
      "bufferView": 2,
      "byteOffset": 138888,
      "componentType": 5126,
      "count": 8,
      "max": [
        5.686588622211275e-08,
        1.8300693227502052e-07,
        -1.0
      ],
      "min": [
        -5.809771153053589e-08,
        2.65221284934114e-08,
        -1.0
      ],
      "type": "VEC3"
    },
    {
      "bufferView": 1,
      "byteOffset": 46264,
      "componentType": 5126,
      "count": 8,
      "max": [
        0.9837756752967834,
        0.27455905079841614
      ],
      "min": [
        0.9261539578437805,
        0.015620213001966476
      ],
      "type": "VEC2"
    },
    {
      "bufferView": 0,
      "byteOffset": 53436,
      "componentType": 5125,
      "count": 18,
      "type": "SCALAR"
    },
    {
      "bufferView": 3,
      "componentType": 5126,
      "count": 635,
      "max": [
        20.83333396911621
      ],
      "min": [
        0.0416666679084301
      ],
      "type": "SCALAR"
    },
    {
      "bufferView": 4,
      "componentType": 5126,
      "count": 635,
      "max": [
        0.9999998807907104,
        0.0,
        0.0,
        1.0
      ],
      "min": [
        -0.8660151362419128,
        0.0,
        0.0,
        -0.49617767333984375
      ],
      "type": "VEC4"
    },
    {
      "bufferView": 3,
      "byteOffset": 2540,
      "componentType": 5126,
      "count": 354,
      "max": [
        35.0
      ],
      "min": [
        0.0416666679084301
      ],
      "type": "SCALAR"
    },
    {
      "bufferView": 4,
      "byteOffset": 10160,
      "componentType": 5126,
      "count": 354,
      "max": [
        -0.0009023111197166145,
        -0.0,
        0.0,
        0.9999995827674866
      ],
      "min": [
        -0.8634568452835083,
        -0.0,
        0.0,
        0.5044227242469788
      ],
      "type": "VEC4"
    }
  ],
  "animations": [
    {
      "channels": [
        {
          "sampler": 0,
          "target": {
            "node": 4,
            "path": "rotation"
          }
        },
        {
          "sampler": 1,
          "target": {
            "node": 7,
            "path": "rotation"
          }
        }
      ],
      "name": "Take 001",
      "samplers": [
        {
          "input": 28,
          "interpolation": "LINEAR",
          "output": 29
        },
        {
          "input": 30,
          "interpolation": "LINEAR",
          "output": 31
        }
      ]
    }
  ],
  "asset": {
    "extras": {
      "author": "HenryP-F (https://sketchfab.com/Reaps6)",
      "license": "CC-BY-4.0 (http://creativecommons.org/licenses/by/4.0/)",
      "source": "https://sketchfab.com/3d-models/music-box-f76c3804b9df45e3a3e0d4b41f548583",
      "title": "Music Box"
    },
    "generator": "Sketchfab-10.93.0",
    "version": "2.0"
  },
  "bufferViews": [
    {
      "buffer": 0,
      "byteLength": 53508,
      "name": "floatBufferViews",
      "target": 34963
    },
    {
      "buffer": 0,
      "byteLength": 46328,
      "byteOffset": 53508,
      "byteStride": 8,
      "name": "floatBufferViews",
      "target": 34962
    },
    {
      "buffer": 0,
      "byteLength": 138984,
      "byteOffset": 99836,
      "byteStride": 12,
      "name": "floatBufferViews",
      "target": 34962
    },
    {
      "buffer": 0,
      "byteLength": 3956,
      "byteOffset": 238820,
      "name": "floatBufferViews"
    },
    {
      "buffer": 0,
      "byteLength": 15824,
      "byteOffset": 242776,
      "byteStride": 16,
      "name": "floatBufferViews"
    }
  ],
  "buffers": [
    {
      "byteLength": 258600,
      "uri": "scene.bin"
    }
  ],
  "extensionsUsed": [
    "KHR_materials_clearcoat"
  ],
  "images": [
    {
      "uri": "textures/phong1_baseColor.jpeg"
    },
    {
      "uri": "textures/phong1_metallicRoughness.png"
    }
  ],
  "materials": [
    {
      "doubleSided": true,
      "extensions": {
        "KHR_materials_clearcoat": {
          "clearcoatFactor": 1.0,
          "clearcoatRoughnessFactor": 0.04
        }
      },
      "name": "phong1",
      "pbrMetallicRoughness": {
        "baseColorTexture": {
          "index": 0
        },
        "metallicRoughnessTexture": {
          "index": 1
        },
        "roughnessFactor": 0.07467212666216734
      }
    },
    {
      "doubleSided": true,
      "name": "lambert4",
      "pbrMetallicRoughness": {
        "baseColorTexture": {
          "index": 0
        },
        "metallicRoughnessTexture": {
          "index": 1
        },
        "roughnessFactor": 0.6
      }
    },
    {
      "doubleSided": true,
      "extensions": {
        "KHR_materials_clearcoat": {
          "clearcoatFactor": 1.0,
          "clearcoatRoughnessFactor": 0.0
        }
      },
      "name": "blinn2",
      "pbrMetallicRoughness": {
        "baseColorTexture": {
          "index": 0
        },
        "metallicFactor": 0.0
      }
    },
    {
      "doubleSided": true,
      "name": "lambert3",
      "pbrMetallicRoughness": {
        "baseColorTexture": {
          "index": 0
        },
        "metallicRoughnessTexture": {
          "index": 1
        }
      }
    },
    {
      "doubleSided": true,
      "extensions": {
        "KHR_materials_clearcoat": {
          "clearcoatFactor": 1.0,
          "clearcoatRoughnessFactor": 0.04
        }
      },
      "name": "phong2",
      "pbrMetallicRoughness": {
        "baseColorTexture": {
          "index": 0
        },
        "metallicRoughnessTexture": {
          "index": 1
        },
        "roughnessFactor": 0.8949270075211742
      }
    }
  ],
  "meshes": [
    {
      "name": "Musicbox_handle_phong1_0",
      "primitives": [
        {
          "attributes": {
            "NORMAL": 1,
            "POSITION": 0,
            "TEXCOORD_0": 2
          },
          "indices": 3,
          "material": 0,
          "mode": 4
        }
      ]
    },
    {
      "name": "Musicbox_handle_lambert4_0",
      "primitives": [
        {
          "attributes": {
            "NORMAL": 5,
            "POSITION": 4,
            "TEXCOORD_0": 6
          },
          "indices": 7,
          "material": 1,
          "mode": 4
        }
      ]
    },
    {
      "name": "Musicbox_lid_phong1_0",
      "primitives": [
        {
          "attributes": {
            "NORMAL": 9,
            "POSITION": 8,
            "TEXCOORD_0": 10
          },
          "indices": 11,
          "material": 0,
          "mode": 4
        }
      ]
    },
    {
      "name": "Musicbox_lid_blinn2_0",
      "primitives": [
        {
          "attributes": {
            "NORMAL": 13,
            "POSITION": 12,
            "TEXCOORD_0": 14
          },
          "indices": 15,
          "material": 2,
          "mode": 4
        }
      ]
    },
    {
      "name": "Musicbox_Base_phong1_0",
      "primitives": [
        {
          "attributes": {
            "NORMAL": 17,
            "POSITION": 16,
            "TEXCOORD_0": 18
          },
          "indices": 19,
          "material": 0,
          "mode": 4
        }
      ]
    },
    {
      "name": "Musicbox_Base_lambert3_0",
      "primitives": [
        {
          "attributes": {
            "NORMAL": 21,
            "POSITION": 20,
            "TEXCOORD_0": 22
          },
          "indices": 23,
          "material": 3,
          "mode": 4
        }
      ]
    },
    {
      "name": "Musicbox_Base_phong2_0",
      "primitives": [
        {
          "attributes": {
            "NORMAL": 25,
            "POSITION": 24,
            "TEXCOORD_0": 26
          },
          "indices": 27,
          "material": 4,
          "mode": 4
        }
      ]
    }
  ],
  "nodes": [
    {
      "children": [
        1
      ],
      "matrix": [
        0.0377792568769586,
        -1.2763871005140856e-17,
        0.024766946257755995,
        0.0,
        0.024766946257755995,
        1.5653184375743488e-17,
        -0.0377792568769586,
        0.0,
        2.092539235703409e-18,
        0.04517382010817528,
        2.0088800194236898e-17,
        0.0,
        0.09045711904764175,
        -0.0012743265833704707,
        -0.4309367537498474,
        1.0
      ],
      "name": "Sketchfab_model"
    },
    {
      "children": [
        2
      ],
      "matrix": [
        1.0,
        0.0,
        0.0,
        0.0,
        0.0,
        0.0,
        1.0,
        0.0,
        0.0,
        -1.0,
        0.0,
        0.0,
        0.0,
        0.0,
        0.0,
        1.0
      ],
      "name": "cf70313844674cd694d728c630e06616.fbx"
    },
    {
      "children": [
        3
      ],
      "name": "Object_2"
    },
    {
      "children": [
        4,
        7,
        10
      ],
      "name": "RootNode"
    },
    {
      "children": [
        5,
        6
      ],
      "name": "Musicbox_handle",
      "rotation": [
        0.0037037963047623634,
        0.0,
        0.0,
        0.9999931454658508
      ],
      "translation": [
        5.056329727172852,
        0.948428213596344,
        0.019241400063037872
      ]
    },
    {
      "mesh": 0,
      "name": "Musicbox_handle_phong1_0"
    },
    {
      "mesh": 1,
      "name": "Musicbox_handle_lambert4_0"
    },
    {
      "children": [
        8,
        9
      ],
      "name": "Musicbox_lid",
      "rotation": [
        -0.0011170248035341501,
        -0.0,
        0.0,
        0.9999994039535522
      ],
      "translation": [
        0.0,
        1.4098879098892212,
        -1.503658413887024
      ]
    },
    {
      "mesh": 2,
      "name": "Musicbox_lid_phong1_0"
    },
    {
      "mesh": 3,
      "name": "Musicbox_lid_blinn2_0"
    },
    {
      "children": [
        11,
        12,
        13
      ],
      "name": "Musicbox_Base"
    },
    {
      "mesh": 4,
      "name": "Musicbox_Base_phong1_0"
    },
    {
      "mesh": 5,
      "name": "Musicbox_Base_lambert3_0"
    },
    {
      "mesh": 6,
      "name": "Musicbox_Base_phong2_0"
    }
  ],
  "samplers": [
    {
      "magFilter": 9729,
      "minFilter": 9987,
      "wrapS": 10497,
      "wrapT": 10497
    }
  ],
  "scene": 0,
  "scenes": [
    {
      "name": "Sketchfab_Scene",
      "nodes": [
        0
      ]
    }
  ],
  "textures": [
    {
      "sampler": 0,
      "source": 0
    },
    {
      "sampler": 0,
      "source": 1
    }
  ]
}
